<?xml version="1.0" standalone="no"?><!DOCTYPE svg PUBLIC "-//W3C//DTD SVG 1.1//EN" "http://www.w3.org/Graphics/SVG/1.1/DTD/svg11.dtd"><svg t="1683610912161" class="icon" viewBox="0 0 1075 1024" version="1.1" xmlns="http://www.w3.org/2000/svg" p-id="1772" xmlns:xlink="http://www.w3.org/1999/xlink" width="209.9609375" height="200"><path d="M262.0416 114.688l3.4048 22.7328c6.9888 40.192 20.2496 58.1632 36.5312 62.592 12.3392 3.3792 29.44-0.4864 45.2352-9.8304l4.2752-2.6624a290.1248 290.1248 0 0 1 51.5584-26.7264c44.0832-16.4096 93.1072-24.9344 146.0224-24.9344 52.9664 0 102.016 8.4992 146.56 25.088 11.136 4.352 27.0336 11.7248 43.264 21.6064l7.808 4.9664c16.896 11.264 36.0448 16.1792 49.5104 12.4928 15.36-4.1984 28.0576-20.4288 35.2-55.3984l1.2032-6.3744 3.2768-22.272 63.3344 9.344-3.4304 23.0912c-10.88 62.6176-39.7056 101.632-82.7136 113.3568-31.7952 8.704-66.56 0.6912-96.3328-17.4592l-11.1104-7.0656a219.6736 219.6736 0 0 0-15.232-8.3968l-7.936-3.84a211.7632 211.7632 0 0 0-9.6512-4.2496c-36.8128-13.696-78.2848-20.8896-123.7504-20.8896-45.4144 0-86.8864 7.1936-123.2128 20.736l-7.4752 3.1744-2.7136 1.2288a235.9808 235.9808 0 0 0-23.1936 12.288l-5.5296 3.5072c-30.9504 20.608-68.096 30.208-101.8368 20.9664-41.344-11.2896-69.5808-47.7696-81.4848-106.88l-1.3312-7.2192-3.5328-23.4496 63.2832-9.4976z" fill="#5AC2EE" p-id="1773"></path><path d="M537.6 19.2c344.1152 0 498.5856 194.816 498.4832 522.8544l-0.0512 10.0864-64-0.64C975.0016 250.0352 845.7216 83.2 537.6 83.2 232.8064 83.2 102.9888 246.4512 103.1168 541.7216l0.0512 9.7792-64 0.64C35.84 218.0608 189.952 19.2 537.6 19.2z" fill="#5AC2EE" p-id="1774"></path><path d="M375.4496 999.04L309.8624 521.984l-96 12.288c-66.3808 8.448-113.8688 68.096-104.9344 133.12l33.3056 242.176c8.9088 64.8192 70.4512 110.208 136.576 101.7856l96.64-12.3392zM255.104 593.5104l48.128 350.208-32.512 4.1728c-31.8208 4.0448-61.0304-17.4848-65.0752-47.0016l-33.3056-242.176c-4.0192-29.2352 18.0224-56.9344 49.6128-60.928l33.152-4.2752z" fill="#5AC2EE" p-id="1775"></path><path d="M144.384 594.2272l7.7568 63.5392-51.0464 6.2208c-20.0192 2.432-34.3808 18.944-33.8688 36.992l0.256 3.3792 25.216 191.4368c2.432 18.432 19.9168 32.4608 39.936 31.872l3.7632-0.3072 51.0464-6.2208 7.7312 63.5392-51.0208 6.2208c-54.144 6.6048-104.448-29.44-114.0992-81.664l-0.8192-5.0944-25.1904-191.4112c-7.04-53.4528 30.7968-102.4 84.2496-111.5392l5.0688-0.7424 51.0208-6.2208zM861.3376 534.272l-96-12.2624-65.5872 477.0304 96.6144 12.3392c66.1504 8.448 127.6928-36.9664 136.576-101.7856l33.3056-242.176c8.96-65.024-38.528-124.672-104.9088-133.12z m-89.3952 409.4464l48.128-350.208 33.152 4.2496c31.616 4.0192 53.632 31.7184 49.6384 60.928l-33.3056 242.176-0.6912 3.84c-5.888 27.52-33.9456 47.0528-64.384 43.1872l-32.5376-4.1728z" fill="#5AC2EE" p-id="1776"></path><path d="M930.7904 594.2272l51.0464 6.2208c54.4 6.656 94.1056 54.144 89.856 107.264l-0.512 5.0176-25.216 191.4112c-6.9888 53.2224-55.808 91.136-109.6704 87.2704l-5.2224-0.512-51.0464-6.2208 7.7568-63.5392 51.0464 6.2208c20.2496 2.4832 38.784-10.3168 43.0336-28.16l0.64-3.4048 25.1904-191.4112c2.4064-18.176-10.624-35.6352-29.9008-39.7824l-3.6864-0.6144-51.072-6.2208 7.7568-63.5392z" fill="#5AC2EE" p-id="1777"></path></svg>